<?xml version="1.0" encoding="utf-8"?>
<!-- Generator: Adobe Illustrator 16.0.0, SVG Export Plug-In . SVG Version: 6.00 Build 0)  -->
<!DOCTYPE svg PUBLIC "-//W3C//DTD SVG 1.1//EN" "http://www.w3.org/Graphics/SVG/1.1/DTD/svg11.dtd">
<svg version="1.1" id="Layer_1" xmlns="http://www.w3.org/2000/svg" xmlns:xlink="http://www.w3.org/1999/xlink" x="0px" y="0px"
	 width="673.5px" height="82px" viewBox="0 0 673.5 82" enable-background="new 0 0 673.5 82" xml:space="preserve">
<g>
	<defs>
		<rect id="SVGID_1_" width="673.5" height="82"/>
	</defs>
	<clipPath id="SVGID_2_">
		<use xlink:href="#SVGID_1_"  overflow="visible"/>
	</clipPath>
	<g clip-path="url(#SVGID_2_)">
		<path fill="#263746" d="M644.856,50.843v2.087c0,8.301-5.396,12.508-16.039,12.508c-3.516,0-6.891-0.411-10.031-1.224
			c-0.276-0.071-0.469-0.319-0.469-0.604v-6.986c0-0.201,0.097-0.389,0.26-0.506c0.162-0.119,0.371-0.15,0.563-0.086
			c2.652,0.884,5.624,1.332,8.834,1.332c3.148,0,5.326-0.396,6.472-1.176c1.086-0.738,1.613-1.857,1.613-3.418v-1.365
			c0-1.141-0.278-2.018-0.852-2.682c-0.612-0.711-1.887-1.566-3.787-2.543l-6.504-3.372c-4.485-2.298-6.761-5.916-6.761-10.751
			v-2.569c0-4.082,1.223-7.187,3.634-9.229c2.38-2.016,6.257-3.037,11.522-3.037c3.476,0,6.619,0.442,9.345,1.314
			c0.259,0.083,0.435,0.323,0.435,0.596v6.904c0,0.205-0.101,0.396-0.27,0.514s-0.385,0.143-0.575,0.071
			c-2.486-0.934-5.276-1.406-8.292-1.406c-3.665,0-5.169,0.601-5.785,1.104c-0.861,0.701-1.297,1.901-1.297,3.57v1.604
			c0,1.297,0.252,2.274,0.75,2.905c0.532,0.68,1.597,1.433,3.166,2.24l6.836,3.699C642.423,42.904,644.856,46.439,644.856,50.843
			L644.856,50.843z M591.949,38.014v-7.885c0-3.846,1.804-5.637,5.678-5.637s5.678,1.791,5.678,5.637v7.885H591.949L591.949,38.014z
			 M597.587,16.82c-4.753,0-8.36,1.21-10.721,3.597c-2.356,2.385-3.552,5.626-3.552,9.632v22.159c0,8.778,5.45,13.229,16.2,13.229
			c3.678,0,7.189-0.439,10.438-1.306c0.273-0.073,0.464-0.321,0.464-0.604v-6.904c0-0.199-0.095-0.385-0.254-0.504
			c-0.161-0.117-0.366-0.152-0.557-0.092c-3.027,0.938-6.192,1.416-9.409,1.416c-3.137,0-5.33-0.469-6.522-1.396
			c-1.16-0.897-1.725-2.286-1.725-4.241v-6.441h19.126c0.345,0,0.625-0.279,0.625-0.625V30.049c0-4.002-1.167-7.241-3.468-9.627
			C605.926,18.031,602.345,16.82,597.587,16.82L597.587,16.82z M576.916,56.6c0.163,0.116,0.26,0.305,0.26,0.506v6.823
			c0,0.347-0.281,0.625-0.625,0.625c-0.033,0.009-0.257,0.06-0.619,0.145c-0.457,0.107-0.929,0.216-1.414,0.323
			c-1.479,0.329-2.929,0.496-4.309,0.496c-7.873,0-11.865-3.884-11.865-11.545V24.75V9.995c-0.005-0.169,0.059-0.333,0.176-0.454
			c0.118-0.121,0.28-0.189,0.449-0.189h7.547c0.345,0,0.625,0.28,0.625,0.625v7.646h8.688c0.345,0,0.625,0.28,0.625,0.625v6.503
			c0,0.346-0.28,0.625-0.625,0.625h-8.688v28.037c0,2.75,1.332,4.031,4.192,4.031c1.478,0,3.168-0.313,5.021-0.93
			C576.544,56.449,576.754,56.48,576.916,56.6L576.916,56.6z M541.238,43.715v12.286c-1.852,1.437-3.896,2.165-6.079,2.165
			c-2.218,0-3.756-0.379-4.449-1.094c-0.709-0.732-1.068-1.909-1.068-3.499v-2.41c0-1.614,0.306-2.821,0.909-3.587
			c0.607-0.771,1.904-1.441,3.85-1.99L541.238,43.715L541.238,43.715z M535.438,17.221c-4.753,0-8.735,0.523-11.837,1.559
			c-0.256,0.084-0.428,0.323-0.428,0.592v6.904c0,0.203,0.099,0.395,0.265,0.512c0.168,0.116,0.379,0.146,0.57,0.077
			c2.917-1.042,6.102-1.569,9.464-1.569c4.093,0,5.732,0.643,6.388,1.182c0.914,0.756,1.379,2.038,1.379,3.813v5.705l-10.063,2.767
			c-3.534,0.994-6.15,2.479-7.775,4.413c-1.642,1.951-2.475,4.531-2.475,7.669v2.65c0,7.819,3.938,11.785,11.703,11.785
			c3.456,0,6.371-0.93,8.688-2.765v1.897c0,0.345,0.28,0.625,0.625,0.625h7.227c0.345,0,0.625-0.28,0.625-0.625V30.289
			C549.794,21.617,544.964,17.221,535.438,17.221L535.438,17.221z M512.943,18.809v45.603c0,0.345-0.28,0.625-0.625,0.625h-7.547
			c-0.345,0-0.625-0.28-0.625-0.625V18.809c0-0.346,0.28-0.625,0.625-0.625h7.547C512.663,18.184,512.943,18.463,512.943,18.809
			L512.943,18.809z M513.585,9.776c0,3.323-1.743,5.081-5.041,5.081c-3.297,0-5.04-1.758-5.04-5.081s1.743-5.08,5.04-5.08
			C511.842,4.696,513.585,6.453,513.585,9.776L513.585,9.776z M495.663,56.117c0.163,0.117,0.26,0.305,0.26,0.506v7.064
			c0,0.289-0.197,0.54-0.479,0.607c-3.138,0.758-6.239,1.143-9.22,1.143c-9.79,0-14.754-4.316-14.754-12.828V30.049
			c0-8.512,4.964-12.828,14.754-12.828c3.413,0,6.496,0.386,9.165,1.146c0.268,0.077,0.453,0.322,0.453,0.602v6.985
			c0,0.195-0.092,0.38-0.247,0.498c-0.158,0.118-0.362,0.155-0.546,0.104c-2.615-0.731-5.301-1.102-7.982-1.102
			c-2.594,0-4.404,0.41-5.38,1.221c-0.942,0.781-1.42,2.078-1.42,3.855v21.677c0,1.778,0.478,3.074,1.42,3.853
			c0.975,0.812,2.826,1.223,5.502,1.223c2.756,0,5.417-0.422,7.911-1.252C495.291,55.967,495.501,55.998,495.663,56.117
			L495.663,56.117z M455.646,52.448c0,3.792-1.765,5.558-5.557,5.558c-3.791,0-5.557-1.766-5.557-5.558V30.209
			c0-3.791,1.766-5.557,5.557-5.557c3.792,0,5.557,1.766,5.557,5.557V52.448L455.646,52.448z M450.09,16.82
			c-4.753,0-8.361,1.21-10.721,3.597c-2.356,2.385-3.552,5.626-3.552,9.632v22.561c0,4.009,1.195,7.25,3.552,9.633
			c2.359,2.386,5.966,3.596,10.721,3.596c4.754,0,8.374-1.209,10.759-3.595c2.386-2.384,3.596-5.625,3.596-9.634V30.049
			c0-4.006-1.21-7.247-3.596-9.635C458.462,18.029,454.843,16.82,450.09,16.82L450.09,16.82z M429.798,50.843v2.087
			c0,8.301-5.396,12.508-16.039,12.508c-3.516,0-6.891-0.411-10.031-1.224c-0.276-0.071-0.469-0.319-0.469-0.604v-6.986
			c0-0.201,0.097-0.389,0.26-0.506c0.163-0.119,0.37-0.15,0.563-0.086c2.652,0.884,5.624,1.332,8.834,1.332
			c3.148,0,5.326-0.396,6.473-1.176c1.085-0.738,1.612-1.857,1.612-3.418v-1.365c0-1.141-0.278-2.018-0.852-2.682
			c-0.612-0.711-1.887-1.566-3.787-2.543l-6.504-3.372c-4.485-2.298-6.761-5.916-6.761-10.751v-2.569
			c0-4.082,1.223-7.187,3.633-9.229c2.381-2.016,6.258-3.037,11.524-3.037c3.474,0,6.618,0.442,9.344,1.314
			c0.259,0.083,0.435,0.323,0.435,0.596v6.904c0,0.205-0.101,0.396-0.27,0.514s-0.385,0.143-0.576,0.071
			c-2.485-0.934-5.274-1.406-8.291-1.406c-3.665,0-5.169,0.601-5.785,1.104c-0.86,0.7-1.296,1.901-1.296,3.57v1.604
			c0,1.298,0.252,2.275,0.749,2.905c0.532,0.68,1.597,1.433,3.166,2.24l6.836,3.699C427.364,42.904,429.798,46.439,429.798,50.843
			L429.798,50.843z M398.166,50.843v2.087c0,8.301-5.396,12.508-16.039,12.508c-3.516,0-6.891-0.411-10.031-1.224
			c-0.276-0.071-0.469-0.319-0.469-0.604v-6.986c0-0.201,0.097-0.389,0.26-0.506c0.163-0.119,0.37-0.15,0.563-0.086
			c2.652,0.884,5.624,1.332,8.834,1.332c3.148,0,5.326-0.396,6.472-1.176c1.086-0.738,1.613-1.857,1.613-3.418v-1.365
			c0-1.141-0.278-2.018-0.852-2.682c-0.612-0.711-1.887-1.566-3.787-2.543l-6.504-3.372c-4.485-2.299-6.762-5.917-6.762-10.751
			v-2.569c0-4.081,1.223-7.187,3.635-9.229c2.379-2.016,6.256-3.037,11.523-3.037c3.474,0,6.617,0.442,9.344,1.314
			c0.259,0.082,0.435,0.323,0.435,0.596v6.904c0,0.205-0.101,0.396-0.27,0.514c-0.168,0.117-0.385,0.143-0.575,0.071
			c-2.486-0.934-5.276-1.406-8.292-1.406c-3.665,0-5.169,0.601-5.786,1.104c-0.86,0.701-1.296,1.901-1.296,3.57v1.604
			c0,1.297,0.252,2.274,0.75,2.905c0.532,0.68,1.597,1.433,3.166,2.24l6.836,3.699C395.732,42.904,398.166,46.439,398.166,50.843
			L398.166,50.843z M355.49,43.715v12.286c-1.853,1.437-3.896,2.165-6.079,2.165c-2.218,0-3.757-0.379-4.45-1.094
			c-0.708-0.732-1.067-1.91-1.067-3.499v-2.41c0-1.614,0.306-2.821,0.909-3.587c0.606-0.77,1.902-1.441,3.85-1.99L355.49,43.715
			L355.49,43.715z M349.69,17.221c-4.753,0-8.736,0.523-11.839,1.559c-0.256,0.084-0.428,0.323-0.428,0.592v6.904
			c0,0.203,0.098,0.395,0.264,0.512c0.168,0.116,0.38,0.146,0.571,0.077c2.918-1.042,6.103-1.569,9.465-1.569
			c4.093,0,5.732,0.643,6.388,1.182c0.915,0.756,1.379,2.038,1.379,3.813v5.705l-10.063,2.767c-3.534,0.995-6.15,2.479-7.775,4.413
			c-1.642,1.953-2.475,4.533-2.475,7.669v2.65c0,7.819,3.938,11.785,11.704,11.785c3.455,0,6.371-0.931,8.688-2.767v1.899
			c0,0.345,0.28,0.625,0.625,0.625h7.227c0.345,0,0.625-0.28,0.625-0.625V30.289C364.046,21.617,359.216,17.221,349.69,17.221
			L349.69,17.221z M311.984,50.843v2.087c0,8.301-5.396,12.508-16.039,12.508c-3.516,0-6.891-0.411-10.031-1.224
			c-0.276-0.071-0.469-0.319-0.469-0.604v-6.986c0-0.201,0.097-0.389,0.26-0.506c0.162-0.119,0.37-0.15,0.563-0.086
			c2.652,0.884,5.624,1.332,8.834,1.332c3.148,0,5.326-0.396,6.472-1.176c1.086-0.738,1.613-1.857,1.613-3.418v-1.365
			c0-1.141-0.278-2.018-0.852-2.682c-0.614-0.711-1.889-1.566-3.787-2.543l-6.504-3.372c-4.485-2.299-6.762-5.917-6.762-10.751
			v-2.569c0-4.082,1.223-7.188,3.636-9.229c2.378-2.016,6.255-3.037,11.522-3.037c3.474,0,6.617,0.442,9.344,1.314
			c0.259,0.082,0.435,0.323,0.435,0.596v6.904c0,0.205-0.101,0.396-0.27,0.514c-0.168,0.117-0.385,0.143-0.575,0.071
			c-2.486-0.934-5.276-1.406-8.292-1.406c-3.665,0-5.169,0.601-5.786,1.104c-0.859,0.701-1.296,1.901-1.296,3.57v1.604
			c0,1.297,0.252,2.274,0.75,2.905c0.532,0.68,1.597,1.433,3.166,2.24l6.835,3.699C309.55,42.904,311.984,46.439,311.984,50.843
			L311.984,50.843z M269.389,29.808v21.839c0,3.571-1.766,5.234-5.558,5.234h-5.155V27.229c2.146-1.018,4.31-1.533,6.439-1.533
			C268.03,25.695,269.389,27.002,269.389,29.808L269.389,29.808z M267.163,17.462c-2.959,0-5.918,0.66-8.811,1.964v-1.179
			c0-0.345-0.279-0.625-0.625-0.625h-7.224c-0.345,0-0.625,0.28-0.625,0.625v58.127c0,0.346,0.28,0.625,0.625,0.625h7.547
			c0.344,0,0.625-0.279,0.625-0.625V65.036h7.003c3.788,0,6.863-1.099,9.141-3.263c2.286-2.174,3.446-5.312,3.446-9.325V28.523
			c0-3.59-1.026-6.363-3.05-8.246C273.206,18.409,270.496,17.462,267.163,17.462L267.163,17.462z M222.378,27.229
			c2.146-1.018,4.31-1.533,6.44-1.533c2.915,0,4.273,1.307,4.273,4.112v21.839c0,3.571-1.767,5.234-5.559,5.234h-5.155V27.229
			L222.378,27.229z M230.866,17.462c-2.96,0-5.919,0.66-8.81,1.964v-1.179c0-0.345-0.28-0.625-0.625-0.625h-7.226
			c-0.345,0-0.625,0.28-0.625,0.625v58.127c0,0.346,0.28,0.625,0.625,0.625h7.547c0.345,0,0.625-0.279,0.625-0.625V65.036h7.003
			c3.788,0,6.863-1.099,9.141-3.263c2.287-2.174,3.446-5.312,3.446-9.325V28.523c0-3.59-1.026-6.363-3.05-8.246
			C236.909,18.409,234.2,17.462,230.866,17.462L230.866,17.462z M196.717,43.715v12.286c-1.852,1.437-3.896,2.165-6.079,2.165
			c-2.218,0-3.756-0.379-4.45-1.094c-0.709-0.733-1.067-1.91-1.067-3.499v-2.41c0-1.614,0.306-2.819,0.909-3.587
			c0.607-0.771,1.904-1.441,3.85-1.99L196.717,43.715L196.717,43.715z M190.918,17.221c-4.754,0-8.737,0.523-11.839,1.559
			c-0.256,0.084-0.428,0.323-0.428,0.592v6.904c0,0.203,0.099,0.395,0.265,0.512c0.167,0.116,0.38,0.146,0.57,0.077
			c2.917-1.042,6.102-1.569,9.464-1.569c4.093,0,5.732,0.643,6.388,1.182c0.915,0.756,1.379,2.038,1.379,3.813v5.705l-10.063,2.767
			c-3.534,0.994-6.15,2.479-7.775,4.413c-1.642,1.951-2.475,4.531-2.475,7.669v2.65c0,7.819,3.938,11.785,11.703,11.785
			c3.455,0,6.371-0.93,8.688-2.765v1.897c0,0.345,0.28,0.625,0.625,0.625h7.226c0.346,0,0.626-0.28,0.626-0.625V30.289
			C205.272,21.617,200.443,17.221,190.918,17.221L190.918,17.221z"/>
		<path fill="#0082CA" d="M74.536,39.364c-2.943-2.31-6.182-4.542-9.762-6.55c-0.754-0.423-1.49-0.809-2.225-1.192
			c-1.33,1.59-2.562,3.177-3.718,4.747c3.583,2.752,6.872,5.721,9.844,8.773C70.43,43.258,72.38,41.311,74.536,39.364L74.536,39.364
			z M95.545,25.431c14.266-6.634,25.041-6.689,31.435-6.8c0.942-0.016,1.436-1.165,0.801-1.861L117.528,5.493
			c-1.329-1.456-2.173-2.247-5.235-1.908c-7.213,0.798-17.217,2.371-29.475,10.054C87.531,17.238,91.798,21.282,95.545,25.431
			L95.545,25.431z M150.745,39.741l-10.253-11.276c-1.329-1.457-2.173-2.248-5.235-1.908c-7.357,0.813-17.8,2.21-30.525,10.665
			c0.586,0.88,1.133,1.745,1.661,2.602c1.025,1.662,1.94,3.271,2.74,4.8c0.078,0.15,0.165,0.307,0.241,0.455
			c1.115,2.176,1.975,4.168,2.592,5.933c0.076,0.218,0.163,0.445,0.232,0.655l0,0l0,0c0.137-0.079,0.266-0.162,0.405-0.241
			c16.68-9.564,30.091-9.696,37.341-9.821C150.886,41.586,151.38,40.438,150.745,39.741L150.745,39.741z M96.117,63.409
			c-3.784,3.391-6.611,6.438-8.861,9.062c-1.279-3.25-3.348-7.311-6.175-11.724c1.942-2.795,4.166-5.677,6.678-8.533
			c3.13,3.724,5.361,6.929,6.731,8.899c0.228,0.328,0.435,0.627,0.62,0.889C95.445,62.479,96.117,63.409,96.117,63.409
			L96.117,63.409z"/>
		<path fill="#1C5A7D" d="M109.374,45.078c-0.076-0.148-0.163-0.305-0.241-0.455c-0.8-1.529-1.715-3.138-2.74-4.8
			c-0.528-0.856-1.075-1.722-1.661-2.602c-0.022,0.015-0.043,0.026-0.065,0.042c-1.374,0.914-2.697,1.883-3.996,2.871
			c0.524,0.791,1.031,1.576,1.504,2.343c0.468,0.758,0.9,1.497,1.316,2.226c0.088,0.154,0.175,0.307,0.261,0.459
			c0.394,0.701,0.766,1.389,1.11,2.057c0.058,0.113,0.11,0.221,0.166,0.332c0.308,0.606,0.595,1.197,0.86,1.771
			c0.047,0.104,0.099,0.209,0.145,0.311c0.279,0.618,0.529,1.21,0.756,1.781c0.049,0.124,0.095,0.245,0.142,0.367
			c0.22,0.572,0.422,1.129,0.585,1.646c0.273,0.87-0.54,1.464-0.54,1.464l-1.189,0.858c0.106-0.073,0.221-0.144,0.327-0.217
			c0.821-0.567,1.663-1.128,2.527-1.685c0.144-0.093,0.287-0.186,0.432-0.277c1.013-0.645,2.051-1.281,3.125-1.904
			c-0.069-0.21-0.156-0.438-0.232-0.655C111.349,49.246,110.489,47.254,109.374,45.078L109.374,45.078z M65.341,48.902
			c0.001,0,0.001,0.002,0.002,0.002c1.018-1.209,2.129-2.471,3.332-3.762c-2.973-3.053-6.261-6.021-9.844-8.773
			c-1.028,1.396-1.988,2.773-2.872,4.121C59.358,43.119,62.496,45.963,65.341,48.902L65.341,48.902z M78.087,65.343
			c0.052,0.086,0.098,0.168,0.149,0.254c0.391,0.652,0.759,1.291,1.112,1.922c0.102,0.183,0.205,0.365,0.303,0.546
			c0.367,0.668,0.712,1.32,1.034,1.957c0.071,0.143,0.137,0.279,0.206,0.42c0.281,0.567,0.545,1.121,0.789,1.66
			c0.052,0.115,0.108,0.232,0.158,0.347c0.269,0.604,0.509,1.185,0.729,1.747c0.051,0.129,0.098,0.254,0.145,0.38
			c0.215,0.566,0.413,1.119,0.576,1.633c0.033,0.108,0.06,0.215,0.078,0.323c0.056,0.317,0.039,0.628-0.071,0.879v0.001
			c0.008-0.011,0.018-0.026,0.027-0.038c0.836-1.116,2.156-2.829,3.934-4.902c-1.279-3.25-3.348-7.311-6.175-11.724
			C79.993,62.314,78.985,63.855,78.087,65.343L78.087,65.343z M81.722,19.154c-1.073-0.873-2.169-1.724-3.293-2.545
			c1.173-0.855,2.366-1.689,3.593-2.479c0.269-0.172,0.529-0.325,0.796-0.492c4.713,3.6,8.98,7.644,12.727,11.792
			c-1.507,0.7-3.06,1.491-4.644,2.347c-0.894-0.961-1.816-1.912-2.767-2.854c-0.052-0.051-0.103-0.102-0.155-0.153
			c-0.899-0.886-1.822-1.757-2.771-2.616c-0.1-0.091-0.198-0.183-0.299-0.273c-0.93-0.834-1.883-1.65-2.858-2.451
			C81.94,19.338,81.833,19.244,81.722,19.154L81.722,19.154z"/>
		<path fill="#C3002F" d="M107.516,53.427c-0.163-0.517-0.365-1.073-0.585-1.646c-0.047-0.122-0.093-0.243-0.142-0.367
			c-0.227-0.571-0.477-1.163-0.756-1.781c-0.046-0.102-0.098-0.207-0.145-0.311c-0.265-0.574-0.552-1.165-0.86-1.771
			c-0.056-0.111-0.108-0.219-0.166-0.332c-0.343-0.666-0.716-1.355-1.11-2.057c-0.085-0.152-0.173-0.307-0.261-0.459
			c-0.416-0.729-0.849-1.468-1.316-2.226c-0.234-0.38-0.496-0.773-0.745-1.161c-0.254-0.395-0.494-0.782-0.759-1.182l0,0
			c-2.643-3.99-5.939-8.235-9.77-12.357l0,0c-0.893-0.96-1.818-1.912-2.767-2.854c-0.052-0.051-0.103-0.103-0.155-0.153
			c-0.898-0.886-1.824-1.757-2.771-2.616c-0.1-0.09-0.198-0.183-0.299-0.273c-0.929-0.834-1.884-1.651-2.858-2.451
			c-0.111-0.092-0.218-0.186-0.329-0.275c-1.072-0.873-2.169-1.723-3.293-2.545l0,0c-1.173-0.855-2.367-1.689-3.593-2.479
			C62.211,6.006,51.935,4.399,44.565,3.584c-3.063-0.339-3.906,0.452-5.235,1.908L29.077,16.77c-0.635,0.696-0.142,1.846,0.8,1.861
			c7.25,0.125,20.125,0.167,37.342,9.822C85.695,38.814,95.915,54.456,99.2,59.125c0.354,0.504,1.047,0.542,1.658,0.189l6.118-4.424
			C106.976,54.891,107.789,54.297,107.516,53.427L107.516,53.427z M83.295,77.41c-0.152,0.35-0.483,0.589-1.062,0.589h-8.334
			c-0.688,0-0.865-0.381-1.047-0.626c-3.121-4.168-12.766-16.479-29.281-25.948c-16.681-9.564-30.092-9.696-37.342-9.821
			c-0.942-0.018-1.436-1.166-0.8-1.862l10.253-11.276c1.329-1.457,2.172-2.248,5.235-1.908c7.369,0.814,17.836,2.213,30.59,10.707
			c1.536,1.023,3.009,2.111,4.452,3.227l0,0c3.4,2.629,6.538,5.473,9.382,8.412c5.307,5.484,9.618,11.263,12.746,16.44l0,0
			c0.052,0.086,0.098,0.168,0.149,0.254c0.39,0.651,0.759,1.292,1.112,1.922c0.102,0.183,0.205,0.365,0.303,0.546
			c0.366,0.667,0.713,1.321,1.034,1.957c0.071,0.142,0.137,0.279,0.206,0.42c0.281,0.567,0.545,1.123,0.789,1.66
			c0.052,0.115,0.108,0.232,0.158,0.347c0.268,0.604,0.51,1.185,0.729,1.747c0.051,0.129,0.098,0.254,0.145,0.38
			c0.215,0.566,0.413,1.119,0.576,1.633c0.033,0.108,0.059,0.215,0.078,0.323C83.421,76.849,83.405,77.159,83.295,77.41
			L83.295,77.41z"/>
		<path fill="#263746" d="M658.795,15.148h1.155c0.972,0,1.659-0.158,2.061-0.477c0.402-0.318,0.604-0.93,0.604-1.834
			c0-0.905-0.177-1.482-0.527-1.734c-0.353-0.252-0.947-0.377-1.784-0.377h-1.508V15.148L658.795,15.148z M656.583,8.816h3.619
			c2.98,0,4.472,1.325,4.472,3.971c0,1.842-0.587,3.064-1.759,3.668l2.312,5.377h-2.411l-1.91-4.875
			c-0.168,0.034-0.42,0.051-0.754,0.051h-1.356v4.824h-2.212V8.816L656.583,8.816z M660.252,23.993c1.708,0,3.082-0.151,4.12-0.453
			c1.039-0.302,1.835-0.837,2.387-1.606c0.554-0.771,0.913-1.634,1.081-2.59c0.168-0.955,0.252-2.252,0.252-3.893
			c0-3.318-0.496-5.604-1.482-6.86c-0.989-1.257-3.092-1.885-6.307-1.885c-3.216,0-5.302,0.628-6.257,1.885
			c-0.954,1.257-1.432,3.526-1.432,6.81s0.478,5.535,1.432,6.758C655.001,23.382,657.068,23.993,660.252,23.993L660.252,23.993z
			 M650.352,15.4c0-3.686,0.721-6.391,2.162-8.117c1.439-1.725,4.045-2.587,7.813-2.587c3.77,0,6.383,0.863,7.839,2.587
			c1.458,1.726,2.186,4.422,2.186,8.09c0,3.669-0.72,6.365-2.159,8.091c-1.441,1.727-4.055,2.588-7.841,2.588
			c-3.785,0-6.398-0.854-7.838-2.563C651.072,21.782,650.352,19.086,650.352,15.4L650.352,15.4z"/>
	</g>
</g>
</svg>
